# xmcd
#
# Track frame offsets:
#	150
#	18164
#	38224
#	63339
#	83397
#	100846
#	129652
#	147153
#	158415
#	171676
#	198991
#
# Disc length: 3026 seconds
#
# Revision: 0
# Processed by: cddbd v1.5.2PL0 Copyright (c) Steve Scherf et al.
# Submitted via: dBpowerAMP V4.0
#
DISCID=870bd00b
DTITLE=Arische Jugend - Sturmabende
DYEAR=1900
DGENRE=
TTITLE0=Judenfreie heimat
TTITLE1=6 Mio. ???
TTITLE2=Ruhe in Frieden!
TTITLE3=Dem deutschen Soldaten
TTITLE4=Sieg oder Tod
TTITLE5=Dresden
TTITLE6=Rudolf Heﬂ
TTITLE7=Allen die stuermend fielen
TTITLE8=Wieder heim
TTITLE9=Brief von der Front
TTITLE10=Das alte Haus
EXTD=
EXTT0=
EXTT1=
EXTT2=
EXTT3=
EXTT4=
EXTT5=
EXTT6=
EXTT7=
EXTT8=
EXTT9=
EXTT10=
PLAYORDER=
